<svg width="400" height="144" viewBox="0 0 400 144" xmlns="http://www.w3.org/2000/svg" role="img" aria-label="Top languages">
  <defs>
    <linearGradient id="bg" x1="0" y1="0" x2="1" y2="1">
      <stop offset="0%" stop-color="#06101f"/>
      <stop offset="100%" stop-color="#0b1224"/>
    </linearGradient>
    <linearGradient id="neon" x1="0" y1="0" x2="1" y2="0">
      <stop offset="0%" stop-color="#22d3ee"/>
      <stop offset="100%" stop-color="#4ade80"/>
    </linearGradient>
  </defs>
  <rect width="400" height="144" rx="14" fill="url(#bg)" stroke="url(#neon)" stroke-opacity="0.5" stroke-width="1.5"/>
  <text x="20" y="28" font-family="'JetBrains Mono','Fira Code',monospace" font-size="12" fill="#94a3b8" letter-spacing="1">isaac@github :: languages</text>
  <line x1="20" y1="40" x2="380" y2="40" stroke="#1e293b" stroke-width="1"/>
  <text x="20" y="56" font-family="'JetBrains Mono',monospace" font-size="12" fill="#e2e8f0">Python</text>
  <rect x="20" y="62" width="340" height="8" rx="4" fill="#0b1626"/>
  <rect x="20" y="62" width="315.7" height="8" rx="4" fill="#3572A5"/>
  <text x="372" y="56" text-anchor="end" font-family="'JetBrains Mono',monospace" font-size="12" font-weight="700" fill="#3572A5">92.8%</text>
  <text x="20" y="82" font-family="'JetBrains Mono',monospace" font-size="12" fill="#e2e8f0">Jupyter Notebook</text>
  <rect x="20" y="88" width="340" height="8" rx="4" fill="#0b1626"/>
  <rect x="20" y="88" width="16.8" height="8" rx="4" fill="#DA5B0B"/>
  <text x="372" y="82" text-anchor="end" font-family="'JetBrains Mono',monospace" font-size="12" font-weight="700" fill="#DA5B0B">4.9%</text>
  <text x="20" y="108" font-family="'JetBrains Mono',monospace" font-size="12" fill="#e2e8f0">Shell</text>
  <rect x="20" y="114" width="340" height="8" rx="4" fill="#0b1626"/>
  <rect x="20" y="114" width="7.6" height="8" rx="4" fill="#89e051"/>
  <text x="372" y="108" text-anchor="end" font-family="'JetBrains Mono',monospace" font-size="12" font-weight="700" fill="#89e051">2.2%</text>
</svg>
